<svg width="80" height="48" viewBox="0 0 80 48" fill="none" xmlns="http://www.w3.org/2000/svg">
<path d="M30.8532 16.1426C30.8532 8.25287 24.4572 1.85693 16.5675 1.85693C8.67767 1.85693 2.28174 8.25287 2.28174 16.1426C2.28174 24.0324 8.67767 30.4284 16.5675 30.4284C24.4572 30.4284 30.8532 24.0324 30.8532 16.1426Z" fill="url(#paint0_radial_445_1673)"/>
<path d="M29.3893 8.06037C32.9166 4.93697 38.4485 6.02407 40.5315 10.25L51.646 32.7991C53.9472 37.4675 50.6429 42.9506 45.4403 43.0971L7.65991 44.1607C0.988554 44.3485 -2.27302 36.0976 2.72363 31.6731L29.3893 8.06037Z" fill="url(#paint1_linear_445_1673)"/>
<path d="M60.2106 25.4291L47.4239 24.0851C46.6393 24.0026 45.9363 24.5719 45.8538 25.3565L44.5099 38.1432C44.4274 38.9279 44.9967 39.6309 45.7813 39.7133L58.568 41.0573C59.3527 41.1397 60.0556 40.5705 60.1381 39.7858L61.4821 26.9991C61.5645 26.2145 60.9953 25.5115 60.2106 25.4291Z" fill="#82BBCC"/>
<path d="M14.0539 16.3099C13.5739 16.3099 13.1089 16.2349 12.6589 16.0849C12.2132 15.9349 11.8232 15.7206 11.4889 15.442C11.1546 15.1634 10.9189 14.8313 10.7817 14.4456L11.6239 14.1306C11.7182 14.3963 11.8896 14.6256 12.1382 14.8184C12.391 15.007 12.6846 15.1527 13.0189 15.2556C13.3575 15.3584 13.7025 15.4099 14.0539 15.4099C14.4653 15.4099 14.8489 15.3413 15.2046 15.2042C15.5603 15.067 15.8475 14.8763 16.066 14.632C16.2846 14.3834 16.3939 14.092 16.3939 13.7577C16.3939 13.4192 16.2803 13.1406 16.0532 12.922C15.826 12.7034 15.5325 12.532 15.1725 12.4077C14.8167 12.2792 14.4439 12.1806 14.0539 12.112C13.441 12.0049 12.8903 11.8592 12.4017 11.6749C11.9175 11.4906 11.5339 11.2313 11.251 10.897C10.9682 10.5584 10.8267 10.1127 10.8267 9.55987C10.8267 9.0413 10.9767 8.5913 11.2767 8.20987C11.5767 7.82844 11.971 7.53273 12.4596 7.32273C12.9525 7.11273 13.4839 7.00773 14.0539 7.00773C14.521 7.00773 14.9775 7.08059 15.4232 7.2263C15.8689 7.37201 16.261 7.58416 16.5996 7.86273C16.9425 8.1413 17.1889 8.48201 17.3389 8.88487L16.4839 9.19344C16.3896 8.92344 16.216 8.69416 15.9632 8.50559C15.7146 8.31273 15.4232 8.16701 15.0889 8.06844C14.7546 7.96559 14.4096 7.91416 14.0539 7.91416C13.6467 7.90987 13.2653 7.97844 12.9096 8.11987C12.5582 8.25701 12.2732 8.44987 12.0546 8.69844C11.836 8.94273 11.7267 9.22987 11.7267 9.55987C11.7267 9.94559 11.8275 10.2434 12.0289 10.4534C12.2346 10.6592 12.5132 10.8134 12.8646 10.9163C13.216 11.0192 13.6125 11.1113 14.0539 11.1927C14.6282 11.2913 15.1617 11.4456 15.6546 11.6556C16.1475 11.8613 16.5439 12.1377 16.8439 12.4849C17.1439 12.8277 17.2939 13.252 17.2939 13.7577C17.2939 14.272 17.1439 14.722 16.8439 15.1077C16.5439 15.4892 16.1475 15.7849 15.6546 15.9949C15.166 16.2049 14.6325 16.3099 14.0539 16.3099ZM24.4706 7.14273H25.3706V16.1427H24.4706V11.7713H19.7456V16.1427H18.8456V7.14273H19.7456V10.8713H24.4706V7.14273ZM27.1118 16.1427V7.14273H28.0118V16.1427H27.1118ZM29.744 16.1427V7.14273H30.7212L35.4719 14.5163V7.14273H36.3719V16.1427H35.4012L30.644 8.76916V16.1427H29.744ZM39.0107 16.3099C38.7192 16.3099 38.4342 16.2606 38.1557 16.162C37.8814 16.0677 37.6307 15.922 37.4035 15.7249L37.9757 15.0306C38.1128 15.1463 38.2692 15.2384 38.445 15.307C38.6207 15.3756 38.8092 15.4099 39.0107 15.4099C39.3107 15.4099 39.5828 15.3306 39.8271 15.172C40.0714 15.0092 40.2664 14.7992 40.4121 14.542C40.5621 14.2806 40.6371 14.002 40.6371 13.7063V7.14273H41.5371V13.7063C41.5371 14.1692 41.4235 14.5977 41.1964 14.992C40.9692 15.3863 40.665 15.7056 40.2835 15.9499C39.9021 16.1899 39.4778 16.3099 39.0107 16.3099ZM47.2569 16.3099C46.6483 16.3099 46.0762 16.1899 45.5405 15.9499C45.0047 15.7056 44.5333 15.3692 44.1262 14.9406C43.719 14.512 43.3997 14.017 43.1683 13.4556C42.9369 12.8899 42.8212 12.2856 42.8212 11.6427C42.8212 10.9999 42.9369 10.3977 43.1683 9.8363C43.3997 9.27059 43.719 8.77344 44.1262 8.34487C44.5333 7.9163 45.0047 7.58201 45.5405 7.34201C46.0762 7.09773 46.6483 6.97559 47.2569 6.97559C47.8697 6.97559 48.444 7.09773 48.9797 7.34201C49.5154 7.58201 49.9869 7.9163 50.394 8.34487C50.8012 8.77344 51.1183 9.27059 51.3455 9.8363C51.5769 10.3977 51.6926 10.9999 51.6926 11.6427C51.6926 12.2856 51.5769 12.8899 51.3455 13.4556C51.1183 14.017 50.8012 14.512 50.394 14.9406C49.9869 15.3692 49.5154 15.7056 48.9797 15.9499C48.444 16.1899 47.8697 16.3099 47.2569 16.3099ZM47.2569 15.4099C47.7497 15.4099 48.2083 15.3113 48.6326 15.1142C49.0612 14.9127 49.4362 14.6384 49.7576 14.2913C50.0833 13.9442 50.3362 13.5434 50.5162 13.0892C50.7005 12.6349 50.7926 12.1527 50.7926 11.6427C50.7926 11.1284 50.7005 10.6442 50.5162 10.1899C50.3319 9.7313 50.0769 9.33059 49.7512 8.98773C49.4297 8.64059 49.0547 8.36844 48.6262 8.1713C48.2019 7.97416 47.7455 7.87559 47.2569 7.87559C46.764 7.87559 46.3033 7.9763 45.8747 8.17773C45.4505 8.37487 45.0755 8.64701 44.7497 8.99416C44.4283 9.3413 44.1755 9.74201 43.9912 10.1963C43.8112 10.6506 43.7212 11.1327 43.7212 11.6427C43.7212 12.1613 43.8133 12.6477 43.9976 13.102C44.1819 13.5563 44.4347 13.957 44.7562 14.3042C45.0819 14.6513 45.4569 14.9234 45.8812 15.1206C46.3097 15.3134 46.7683 15.4099 47.2569 15.4099ZM10.9103 30.4284V21.4284H13.7903C14.2703 21.4284 14.7032 21.5463 15.0889 21.782C15.4746 22.0134 15.781 22.3284 16.0082 22.727C16.2396 23.1213 16.3553 23.5649 16.3553 24.0577C16.3553 24.5549 16.2375 25.0027 16.0017 25.4013C15.7703 25.7999 15.4596 26.1149 15.0696 26.3463C14.6839 26.5777 14.2575 26.6934 13.7903 26.6934H11.8103V30.4284H10.9103ZM11.8103 25.7934H13.7196C14.0367 25.7934 14.326 25.7163 14.5875 25.562C14.8532 25.4034 15.0632 25.1913 15.2175 24.9256C15.376 24.6556 15.4553 24.3513 15.4553 24.0127C15.4553 23.6742 15.376 23.372 15.2175 23.1063C15.0632 22.8363 14.8532 22.6242 14.5875 22.4699C14.326 22.3113 14.0367 22.232 13.7196 22.232H11.8103V25.7934ZM17.6653 30.4284V21.4284H20.7189C21.1989 21.4284 21.6317 21.5463 22.0175 21.782C22.4032 22.0134 22.7096 22.3284 22.9367 22.727C23.1639 23.1213 23.2775 23.5649 23.2775 24.0577C23.2775 24.4992 23.1875 24.8999 23.0075 25.2599C22.8275 25.6199 22.581 25.9177 22.2682 26.1534C21.9596 26.3892 21.6103 26.5456 21.2203 26.6227L23.4189 30.4284H22.3775L20.211 26.6934H18.5653V30.4284H17.6653ZM18.5653 25.7934H20.6417C20.9589 25.7934 21.2482 25.7163 21.5096 25.562C21.7753 25.4034 21.9853 25.1913 22.1396 24.9256C22.2982 24.6556 22.3775 24.3513 22.3775 24.0127C22.3775 23.6742 22.2982 23.372 22.1396 23.1063C21.9853 22.8363 21.7753 22.6242 21.5096 22.4699C21.2482 22.3113 20.9589 22.232 20.6417 22.232H18.5653V25.7934ZM28.8375 30.5956C28.2289 30.5956 27.6567 30.4756 27.121 30.2356C26.5853 29.9913 26.1139 29.6549 25.7067 29.2263C25.2996 28.7977 24.9803 28.3027 24.7489 27.7413C24.5175 27.1756 24.4017 26.5713 24.4017 25.9284C24.4017 25.2856 24.5175 24.6834 24.7489 24.122C24.9803 23.5563 25.2996 23.0592 25.7067 22.6306C26.1139 22.202 26.5853 21.8677 27.121 21.6277C27.6567 21.3834 28.2289 21.2613 28.8375 21.2613C29.4503 21.2613 30.0246 21.3834 30.5603 21.6277C31.096 21.8677 31.5675 22.202 31.9746 22.6306C32.3817 23.0592 32.6989 23.5563 32.926 24.122C33.1575 24.6834 33.2732 25.2856 33.2732 25.9284C33.2732 26.5713 33.1575 27.1756 32.926 27.7413C32.6989 28.3027 32.3817 28.7977 31.9746 29.2263C31.5675 29.6549 31.096 29.9913 30.5603 30.2356C30.0246 30.4756 29.4503 30.5956 28.8375 30.5956ZM28.8375 29.6956C29.3303 29.6956 29.7889 29.597 30.2132 29.3999C30.6417 29.1984 31.0167 28.9242 31.3382 28.577C31.6639 28.2299 31.9167 27.8292 32.0967 27.3749C32.281 26.9206 32.3732 26.4384 32.3732 25.9284C32.3732 25.4142 32.281 24.9299 32.0967 24.4756C31.9125 24.017 31.6575 23.6163 31.3317 23.2734C31.0103 22.9263 30.6353 22.6542 30.2067 22.457C29.7825 22.2599 29.326 22.1613 28.8375 22.1613C28.3446 22.1613 27.8839 22.262 27.4553 22.4634C27.031 22.6606 26.656 22.9327 26.3303 23.2799C26.0089 23.627 25.756 24.0277 25.5717 24.482C25.3917 24.9363 25.3017 25.4184 25.3017 25.9284C25.3017 26.447 25.3939 26.9334 25.5782 27.3877C25.7625 27.842 26.0153 28.2427 26.3367 28.5899C26.6625 28.937 27.0375 29.2092 27.4617 29.4063C27.8903 29.5992 28.3489 29.6956 28.8375 29.6956ZM34.578 30.4284V21.4284H37.5545C38.1759 21.4284 38.7587 21.5463 39.303 21.782C39.8473 22.0134 40.3252 22.337 40.7366 22.7527C41.148 23.1642 41.4694 23.642 41.7009 24.1863C41.9366 24.7263 42.0545 25.307 42.0545 25.9284C42.0545 26.5499 41.9366 27.1327 41.7009 27.677C41.4694 28.217 41.148 28.6949 40.7366 29.1106C40.3252 29.522 39.8473 29.8456 39.303 30.0813C38.7587 30.3127 38.1759 30.4284 37.5545 30.4284H34.578ZM35.478 29.5284H37.5545C38.0516 29.5284 38.5166 29.4363 38.9495 29.252C39.3866 29.0634 39.7702 28.8042 40.1002 28.4742C40.4302 28.1442 40.6873 27.7627 40.8716 27.3299C41.0602 26.8927 41.1545 26.4256 41.1545 25.9284C41.1545 25.4313 41.0602 24.9663 40.8716 24.5334C40.6873 24.0963 40.428 23.7127 40.0937 23.3827C39.7637 23.0527 39.3823 22.7956 38.9495 22.6113C38.5166 22.4227 38.0516 22.3284 37.5545 22.3284H35.478V29.5284ZM46.6569 30.5956C45.9369 30.5956 45.3155 30.4199 44.7926 30.0684C44.2697 29.717 43.8669 29.2456 43.584 28.6542C43.3055 28.0584 43.1662 27.3984 43.1662 26.6742V21.4284H44.0662V26.6742C44.0662 27.2227 44.1669 27.7263 44.3683 28.1849C44.5697 28.6434 44.8633 29.0099 45.249 29.2842C45.6347 29.5584 46.104 29.6956 46.6569 29.6956C47.2226 29.6956 47.6962 29.5584 48.0776 29.2842C48.4633 29.0056 48.7547 28.637 48.9519 28.1784C49.149 27.7199 49.2476 27.2184 49.2476 26.6742V21.4284H50.1476V26.6742C50.1476 27.2184 50.0662 27.7284 49.9033 28.2042C49.7447 28.6756 49.5133 29.0913 49.209 29.4513C48.909 29.8113 48.5426 30.092 48.1097 30.2934C47.6812 30.4949 47.1969 30.5956 46.6569 30.5956ZM55.8573 30.5956C55.2487 30.5956 54.6766 30.4756 54.1409 30.2356C53.6052 29.9913 53.1337 29.657 52.7266 29.2327C52.3237 28.8042 52.0066 28.307 51.7752 27.7413C51.548 27.1756 51.4345 26.5713 51.4345 25.9284C51.4345 25.2856 51.548 24.6813 51.7752 24.1156C52.0066 23.5499 52.3237 23.0549 52.7266 22.6306C53.1337 22.202 53.6052 21.8677 54.1409 21.6277C54.6766 21.3834 55.2487 21.2613 55.8573 21.2613C56.5859 21.2613 57.2566 21.4306 57.8695 21.7692C58.4823 22.1077 58.9902 22.5577 59.393 23.1192L58.5959 23.5499C58.2787 23.1256 57.8759 22.7892 57.3873 22.5406C56.903 22.2877 56.393 22.1613 55.8573 22.1613C55.3645 22.1613 54.9037 22.262 54.4752 22.4634C54.0509 22.6606 53.678 22.9327 53.3566 23.2799C53.0352 23.627 52.7845 24.0277 52.6045 24.482C52.4244 24.9363 52.3345 25.4184 52.3345 25.9284C52.3345 26.447 52.4244 26.9334 52.6045 27.3877C52.7887 27.842 53.0416 28.2427 53.363 28.5899C53.6887 28.937 54.0637 29.2092 54.488 29.4063C54.9166 29.5992 55.373 29.6956 55.8573 29.6956C56.4145 29.6956 56.9309 29.5692 57.4066 29.3163C57.8866 29.0592 58.283 28.7249 58.5959 28.3134L59.393 28.7442C58.9902 29.3056 58.4823 29.7556 57.8695 30.0942C57.2566 30.4284 56.5859 30.5956 55.8573 30.5956ZM67.4267 21.4284V22.3284H64.341V30.4284H63.441V22.3284H60.3617V21.4284H67.4267ZM14.0539 44.8813C13.5739 44.8813 13.1089 44.8063 12.6589 44.6563C12.2132 44.5063 11.8232 44.292 11.4889 44.0134C11.1546 43.7349 10.9189 43.4027 10.7817 43.017L11.6239 42.702C11.7182 42.9677 11.8896 43.197 12.1382 43.3899C12.391 43.5784 12.6846 43.7242 13.0189 43.827C13.3575 43.9299 13.7025 43.9813 14.0539 43.9813C14.4653 43.9813 14.8489 43.9127 15.2046 43.7756C15.5603 43.6384 15.8475 43.4477 16.066 43.2034C16.2846 42.9549 16.3939 42.6634 16.3939 42.3292C16.3939 41.9906 16.2803 41.712 16.0532 41.4934C15.826 41.2749 15.5325 41.1034 15.1725 40.9792C14.8167 40.8506 14.4439 40.752 14.0539 40.6834C13.441 40.5763 12.8903 40.4306 12.4017 40.2463C11.9175 40.062 11.5339 39.8027 11.251 39.4684C10.9682 39.1299 10.8267 38.6842 10.8267 38.1313C10.8267 37.6127 10.9767 37.1627 11.2767 36.7813C11.5767 36.3999 11.971 36.1042 12.4596 35.8942C12.9525 35.6842 13.4839 35.5792 14.0539 35.5792C14.521 35.5792 14.9775 35.652 15.4232 35.7977C15.8689 35.9434 16.261 36.1556 16.5996 36.4342C16.9425 36.7127 17.1889 37.0534 17.3389 37.4563L16.4839 37.7649C16.3896 37.4949 16.216 37.2656 15.9632 37.077C15.7146 36.8842 15.4232 36.7384 15.0889 36.6399C14.7546 36.537 14.4096 36.4856 14.0539 36.4856C13.6467 36.4813 13.2653 36.5499 12.9096 36.6913C12.5582 36.8284 12.2732 37.0213 12.0546 37.2699C11.836 37.5142 11.7267 37.8013 11.7267 38.1313C11.7267 38.517 11.8275 38.8149 12.0289 39.0249C12.2346 39.2306 12.5132 39.3849 12.8646 39.4877C13.216 39.5906 13.6125 39.6827 14.0539 39.7642C14.6282 39.8627 15.1617 40.017 15.6546 40.227C16.1475 40.4327 16.5439 40.7092 16.8439 41.0563C17.1439 41.3992 17.2939 41.8234 17.2939 42.3292C17.2939 42.8434 17.1439 43.2934 16.8439 43.6792C16.5439 44.0606 16.1475 44.3563 15.6546 44.5663C15.166 44.7763 14.6325 44.8813 14.0539 44.8813ZM18.8456 44.7142V35.7142H24.3227V36.6142H19.7456V39.4427H23.532V40.3427H19.7456V43.8142H24.3227V44.7142H18.8456ZM25.8266 44.7142V35.7142H28.8802C29.3602 35.7142 29.793 35.832 30.1787 36.0677C30.5645 36.2992 30.8709 36.6142 31.098 37.0127C31.3252 37.407 31.4387 37.8506 31.4387 38.3434C31.4387 38.7849 31.3487 39.1856 31.1687 39.5456C30.9887 39.9056 30.7423 40.2034 30.4295 40.4392C30.1209 40.6749 29.7716 40.8313 29.3816 40.9084L31.5802 44.7142H30.5387L28.3723 40.9792H26.7266V44.7142H25.8266ZM26.7266 40.0792H28.803C29.1202 40.0792 29.4095 40.002 29.6709 39.8477C29.9366 39.6892 30.1466 39.477 30.3009 39.2113C30.4595 38.9413 30.5387 38.637 30.5387 38.2984C30.5387 37.9599 30.4595 37.6577 30.3009 37.392C30.1466 37.122 29.9366 36.9099 29.6709 36.7556C29.4095 36.597 29.1202 36.5177 28.803 36.5177H26.7266V40.0792ZM35.6166 44.7142L32.3509 35.7142H33.3023L36.1566 43.5827L39.0237 35.7142H39.9752L36.703 44.7142H35.6166ZM41.325 44.7142V35.7142H42.225V44.7142H41.325ZM48.1229 44.8813C47.5143 44.8813 46.9422 44.7613 46.4065 44.5213C45.8707 44.277 45.3993 43.9427 44.9922 43.5184C44.5893 43.0899 44.2722 42.5927 44.0407 42.027C43.8136 41.4613 43.7 40.857 43.7 40.2142C43.7 39.5713 43.8136 38.967 44.0407 38.4013C44.2722 37.8356 44.5893 37.3406 44.9922 36.9163C45.3993 36.4877 45.8707 36.1534 46.4065 35.9134C46.9422 35.6692 47.5143 35.547 48.1229 35.547C48.8515 35.547 49.5222 35.7163 50.135 36.0549C50.7479 36.3934 51.2557 36.8434 51.6586 37.4049L50.8615 37.8356C50.5443 37.4113 50.1415 37.0749 49.6529 36.8263C49.1686 36.5734 48.6586 36.447 48.1229 36.447C47.63 36.447 47.1693 36.5477 46.7407 36.7492C46.3165 36.9463 45.9436 37.2184 45.6222 37.5656C45.3007 37.9127 45.05 38.3134 44.87 38.7677C44.69 39.222 44.6 39.7042 44.6 40.2142C44.6 40.7327 44.69 41.2192 44.87 41.6734C45.0543 42.1277 45.3072 42.5284 45.6286 42.8756C45.9543 43.2227 46.3293 43.4949 46.7536 43.692C47.1822 43.8849 47.6386 43.9813 48.1229 43.9813C48.68 43.9813 49.1965 43.8549 49.6722 43.602C50.1522 43.3449 50.5486 43.0106 50.8615 42.5992L51.6586 43.0299C51.2557 43.5913 50.7479 44.0413 50.135 44.3799C49.5222 44.7142 48.8515 44.8813 48.1229 44.8813ZM52.9848 44.7142V35.7142H58.462V36.6142H53.8848V39.4427H57.6712V40.3427H53.8848V43.8142H58.462V44.7142H52.9848Z" fill="#242424"/>
<defs>
<radialGradient id="paint0_radial_445_1673" cx="0" cy="0" r="1" gradientUnits="userSpaceOnUse" gradientTransform="translate(16.5675 16.1426) rotate(90) scale(14.2857)">
<stop stop-color="#82BBCC"/>
<stop offset="1" stop-color="#CDEAF2"/>
</radialGradient>
<linearGradient id="paint1_linear_445_1673" x1="24.5721" y1="12.5714" x2="24.5721" y2="44.7143" gradientUnits="userSpaceOnUse">
<stop stop-color="#FCFCFC"/>
<stop offset="1" stop-color="#D3D3D3"/>
</linearGradient>
</defs>
</svg>
